<svg width="32px" height="32px" viewBox="0 0 48 48" fill="none" xmlns="http://www.w3.org/2000/svg" aria-label="All-wheel drive" class="seo-pages-0" role="img" version="1.1"><path d="m21.218 5.757 3.905-2.506 5.697 8.88-3.905 2.505-5.697-8.88ZM5.248 16l3.905-2.506 5.697 8.879-3.905 2.505L5.248 16ZM37.701 22.863l-3.905 2.506 5.697 8.879 3.905-2.506-5.697-8.879ZM17.834 35.606l3.905-2.505 5.697 8.879-3.904 2.505-5.698-8.879Z" fill="#E0CAFF"></path><path fill-rule="evenodd" clip-rule="evenodd" d="M25.86 15.31a1.234 1.234 0 0 0 1.72.38l3.91-2.51c.58-.38.75-1.15.38-1.73l-5.7-8.88c-.17-.28-.46-.47-.78-.55a1.25 1.25 0 0 0-.94.17L20.54 4.7a1.26 1.26 0 0 0-.38 1.73l2.173 3.385-9.94 6.38-2.173-3.385a1.25 1.25 0 0 0-1.73-.38l-3.91 2.51a1.25 1.25 0 0 0-.38 1.73l5.7 8.88a1.246 1.246 0 0 0 1.73.38l3.91-2.51c.58-.38.75-1.15.38-1.73l-2.177-3.392 3.921-2.514 3.293 5.09A4.52 4.52 0 0 0 19.93 22.9c-.26 1.17-.04 2.38.61 3.39a4.477 4.477 0 0 0 2.83 1.97 4.41 4.41 0 0 0 2.24-.075L28.89 33.3l-3.921 2.516-2.18-3.396c-.38-.59-1.15-.76-1.73-.38l-3.91 2.51a1.26 1.26 0 0 0-.38 1.73l5.7 8.88a1.271 1.271 0 0 0 1.06.58c.24 0 .48-.06.67-.2l3.91-2.51c.58-.38.75-1.15.38-1.73l-2.167-3.376 9.955-6.389 2.172 3.385a1.246 1.246 0 0 0 1.73.38l3.91-2.51a1.25 1.25 0 0 0 .38-1.73l-5.7-8.88a1.25 1.25 0 0 0-1.73-.38l-3.91 2.51a1.26 1.26 0 0 0-.38 1.73l2.174 3.387L31 31.947l-3.282-5.116a4.52 4.52 0 0 0 1.013-2.011c.26-1.17.04-2.38-.61-3.39a4.477 4.477 0 0 0-2.83-1.97 4.42 4.42 0 0 0-2.22.075l-3.3-5.102 3.916-2.51 2.174 3.387Zm-.632-5.614 2.062 3.214 1.8-1.16-4.35-6.78-1.8 1.16 2.059 3.21a1.298 1.298 0 0 1 .229.356ZM6.98 16.38l4.35 6.78 1.8-1.16-4.35-6.78-1.8 1.16Zm32.9 16.15-2.096-3.267a1.279 1.279 0 0 0-.167-.26L35.53 25.75l1.8-1.16 4.35 6.78-1.8 1.16ZM23.91 42.77l-4.35-6.78 1.8-1.16 4.35 6.78-1.8 1.16Zm-.67-20.58c.34-.22.71-.32 1.08-.32a2.004 2.004 0 1 1-1.08.32Z" fill="#593CFB"></path></svg>