<svg width="32px" height="32px" viewBox="0 0 48 48" fill="none" xmlns="http://www.w3.org/2000/svg" aria-label="Electric" class="seo-pages-0" role="img" version="1.1"><path d="M39.87 12.25H3.25v11.54h36.62V12.25Z" fill="#E0CAFF"></path><path fill-rule="evenodd" clip-rule="evenodd" d="M39.87 36.58c-.69 0-1.25-.56-1.25-1.25V13.5H4.5v20.58h29.87a1.25 1.25 0 0 1 0 2.5H3.25c-.69 0-1.25-.56-1.25-1.25V12.25c0-.69.56-1.25 1.25-1.25h36.62c.69 0 1.25.56 1.25 1.25v4.27h3.71c.69 0 1.25.56 1.25 1.25v12.07c0 .69-.56 1.25-1.25 1.25h-3.71v4.24c0 .69-.56 1.25-1.25 1.25Zm1.25-7.99h2.46v-9.57h-2.46v9.57Z" fill="#593CFB"></path><path d="M16.57 32.21c-.34 0-.69-.14-.93-.42a1.26 1.26 0 0 1 .1-1.77l5.59-4.99H18.5c-.52 0-.98-.32-1.17-.8-.18-.49-.05-1.03.34-1.38l8.04-7.17a1.248 1.248 0 0 1 1.66 1.86l-5.59 4.98h2.83c.52 0 .98.32 1.17.8.18.49.05 1.03-.34 1.38l-8.04 7.17c-.23.23-.53.34-.83.34Z" fill="#593CFB"></path></svg>