<svg width="32px" height="32px" viewBox="0 0 48 48" fill="none" xmlns="http://www.w3.org/2000/svg" aria-label="Pet-friendly" class="seo-pages-0" role="img" version="1.1"><path d="M33.67 12.26c-.13 3.15-1.88 5.7-4.08 5.7-2.63 0-3.95-3.25-3.84-6.01.13-3.28 1.94-5.74 4.19-5.7 2.57.1 3.84 3.31 3.73 6.01ZM22.45 11.95c.11 2.81-1.23 6.01-3.84 6.01-2.2 0-3.95-2.55-4.08-5.7-.11-2.76 1.19-5.91 3.73-6.01 2.25-.03 4.06 2.42 4.19 5.7ZM13.83 22.32c0 3.523-1.92 6.38-4.29 6.38s-4.29-2.857-4.29-6.38c0-3.524 1.92-6.38 4.29-6.38s4.29 2.856 4.29 6.38ZM38.64 28.7c2.37 0 4.29-2.857 4.29-6.38 0-3.524-1.92-6.38-4.29-6.38s-4.29 2.856-4.29 6.38c0 3.523 1.92 6.38 4.29 6.38Z" fill="#E0CAFF"></path><path fill-rule="evenodd" clip-rule="evenodd" d="M18.61 19.21c-2.88 0-5.17-2.97-5.33-6.9-.13-3.49 1.67-7.18 4.93-7.31 2.99-.06 5.33 2.92 5.49 6.9.09 2.31-.65 4.58-1.95 5.93-.86.9-1.95 1.38-3.14 1.38ZM18.3 7.5h-.03c-1.59.06-2.58 2.49-2.5 4.71.1 2.48 1.37 4.5 2.83 4.5.5 0 .94-.2 1.34-.61.81-.85 1.32-2.49 1.25-4.1-.09-2.53-1.36-4.5-2.89-4.5ZM9.54 29.95C6.43 29.95 4 26.6 4 22.32c0-4.28 2.43-7.62 5.54-7.62s5.54 3.35 5.54 7.63c0 4.28-2.44 7.62-5.54 7.62Zm0-12.75c-1.65 0-3.04 2.35-3.04 5.13s1.39 5.13 3.04 5.13c1.65 0 3.04-2.35 3.04-5.13s-1.4-5.13-3.04-5.13ZM33.1 22.32c0 4.28 2.43 7.63 5.54 7.63 3.1 0 5.54-3.35 5.54-7.63 0-4.28-2.44-7.63-5.54-7.63-3.11 0-5.54 3.35-5.54 7.63Zm2.5.01c0-2.78 1.39-5.13 3.04-5.13 1.64 0 3.04 2.35 3.04 5.13s-1.39 5.13-3.04 5.13c-1.65 0-3.04-2.35-3.04-5.13ZM29.59 19.21c-1.19 0-2.27-.48-3.14-1.38-1.3-1.35-2.04-3.62-1.95-5.93.15-3.95 2.47-6.9 5.39-6.9h.07c3.29.13 5.09 3.82 4.96 7.31-.16 3.94-2.45 6.9-5.33 6.9Zm.27-11.71C28.37 7.5 27.1 9.47 27 12c-.06 1.6.44 3.25 1.26 4.1.39.41.83.61 1.33.61 1.46 0 2.73-2.02 2.83-4.5.08-1.93-.76-4.64-2.53-4.71h-.03Z" fill="#593CFB"></path><path d="M25.6 42.4c.09.63.63 1.08 1.24 1.08.05 0 .11 0 .18-.03 5.83-.8 9.45-3.78 9.45-7.78 0-3.188-1.935-5.234-3.492-6.88l-.018-.02a.902.902 0 0 0-.05-.045c-.017-.015-.035-.03-.05-.045a5.893 5.893 0 0 1-1.64-2.3c-.73-3.49-2.98-7.19-7.13-7.19-4.16 0-6.4 3.7-7.13 7.2-.35.89-.91 1.68-1.64 2.3-.04.03-.07.06-.1.09l-.004.004c-1.559 1.65-3.506 3.708-3.506 6.896 0 4.12 3.53 6.96 9.69 7.78.68.1 1.31-.39 1.4-1.07.1-.68-.39-1.31-1.07-1.4-2.81-.38-7.52-1.57-7.52-5.31 0-2.17 1.41-3.68 2.78-5.13a8.254 8.254 0 0 0 2.34-3.37c.03-.06.05-.12.06-.19.18-.88 1.23-5.29 4.7-5.29s4.52 4.41 4.7 5.29c.01.06.03.13.05.19.48 1.3 1.29 2.46 2.34 3.37 1.37 1.45 2.78 2.96 2.78 5.13 0 3.18-3.76 4.83-7.29 5.31-.69.1-1.16.73-1.07 1.41Z" fill="#593CFB"></path></svg>