<svg width="32px" height="32px" viewBox="0 0 48 48" fill="none" xmlns="http://www.w3.org/2000/svg" aria-label="Deluxe &amp; Super Deluxe " class="seo-pages-0" role="img" version="1.1"><path d="M23.28 16.51c-1.46-1.45-3.3-4.34-3.92-10.26-.5 5.93-2.28 8.81-3.71 10.26-1.45 1.45-4.38 3.26-10.38 3.84 5.77.51 8.49 2.61 10.18 4.3 1.68 1.69 3.66 4.29 3.92 9.81.69-5.74 2.78-8.34 4.25-9.81 1.47-1.47 4.09-3.57 9.85-4.3-5.87-.57-8.73-2.38-10.19-3.84ZM36.87 31.1c-.87-.88-2.1-2.49-2.47-6.04-.3 3.55-1.48 5.17-2.35 6.04-.87.87-2.51 2.08-6.11 2.43 3.46.31 5.1 1.57 6.11 2.58 1.01 1.02 2.19 2.58 2.35 5.89.42-3.45 1.67-5.01 2.55-5.89.88-.88 2.45-2.14 5.91-2.58-3.52-.35-5.12-1.56-5.99-2.43Z" fill="#E0CAFF"></path><path fill-rule="evenodd" clip-rule="evenodd" d="M19.31 35.71h.05c.63 0 1.16-.47 1.23-1.09.64-5.23 2.42-7.6 3.9-9.08 1.38-1.37 3.81-3.27 9.13-3.94a1.255 1.255 0 0 0-.04-2.49c-4.3-.42-7.56-1.62-9.42-3.48-1.87-1.87-3.1-5.16-3.56-9.51-.07-.64-.57-1.1-1.26-1.12-.64.01-1.17.5-1.23 1.15-.36 4.37-1.53 7.65-3.36 9.48-1.29 1.29-4.01 2.94-9.62 3.48a1.25 1.25 0 0 0 .01 2.49c5.33.48 7.83 2.36 9.41 3.94 1.63 1.62 3.32 3.96 3.56 8.98.03.65.55 1.17 1.2 1.19Zm-3-11.94c-1.13-1.13-2.65-2.4-5.03-3.34 2.19-.73 3.94-1.74 5.24-3.03 1.23-1.23 2.2-2.89 2.9-4.94.73 2.04 1.72 3.69 2.97 4.94 1.33 1.33 3.11 2.36 5.34 3.09-2.48.99-3.99 2.26-5.01 3.28-1.01 1.01-2.24 2.48-3.22 4.88-.86-2.29-2.08-3.77-3.19-4.88ZM34.35 43.24h.05c.63 0 1.17-.47 1.23-1.1.36-2.98 1.36-4.32 2.19-5.15.83-.83 2.18-1.84 5.18-2.22a1.255 1.255 0 0 0-.04-2.49c-3.14-.31-4.49-1.33-5.23-2.07-.74-.75-1.78-2.11-2.11-5.29a1.24 1.24 0 0 0-1.24-1.12h-.01c-.64.01-1.18.51-1.23 1.15-.3 3.57-1.57 4.84-1.99 5.26-.42.43-1.71 1.72-5.34 2.07a1.25 1.25 0 0 0 .01 2.49c3.04.27 4.45 1.33 5.34 2.22.91.91 1.85 2.22 1.99 5.06.03.65.55 1.17 1.2 1.19Zm-1.42-8.02a9.117 9.117 0 0 0-2.22-1.66 8.34 8.34 0 0 0 2.22-1.58c.61-.61 1.11-1.31 1.52-2.12.42.81.93 1.51 1.54 2.12.65.65 1.4 1.18 2.27 1.61a9.043 9.043 0 0 0-2.19 1.63c-.49.48-1.05 1.13-1.57 2.08-.48-.9-1.04-1.55-1.57-2.08Z" fill="#593CFB"></path></svg>