<svg width="32px" height="32px" viewBox="0 0 48 48" fill="none" xmlns="http://www.w3.org/2000/svg" aria-label="Convertibles" class="seo-pages-0" role="img" version="1.1"><path d="m36.4 30.2-12.1-1.3H4.2v10h21.3c.7-1.3 2.2-2.3 3.8-2.3 1.6 0 3.1.9 3.8 2.3h6.5v-5.1c.1-1.9-1.3-3.5-3.2-3.6Z" fill="#E0CAFF"></path><path d="M34.8 6.7c-.6 0-1.1-.5-1.1-1.1V3.1c0-.6.5-1.1 1.1-1.1.6 0 1.1.5 1.1 1.1v2.4c.1.7-.4 1.2-1.1 1.2Z" fill="#593CFB"></path><path fill-rule="evenodd" clip-rule="evenodd" d="M34.9 17.4c-2.5 0-4.5-2-4.5-4.5s2-4.5 4.5-4.5 4.5 2 4.5 4.5-2.1 4.5-4.5 4.5Zm0-6.8c-1.2 0-2.3 1-2.3 2.3 0 1.3 1 2.3 2.3 2.3 1.2 0 2.3-1 2.3-2.3 0-1.3-1.1-2.3-2.3-2.3Z" fill="#593CFB"></path><path d="M33.8 22.6c0 .6.5 1.1 1.1 1.1.6 0 1.1-.5 1.1-1.1v-2.4c0-.6-.5-1.1-1.1-1.1-.6 0-1.1.5-1.1 1.1v2.4ZM26.4 18.9c-.4 0-.8-.2-1-.6-.3-.5-.1-1.2.4-1.5l2.1-1.2c.5-.3 1.2-.1 1.5.4.3.5.1 1.2-.4 1.5l-2.1 1.2c-.1.1-.3.2-.5.2ZM40.2 9.7c.2.4.6.6 1 .6.2 0 .3 0 .5-.2l2.1-1.2c.5-.3.7-1 .4-1.5-.3-.5-1-.7-1.5-.4l-2.1 1.2c-.5.3-.7 1-.4 1.5ZM43.3 18.8c-.2 0-.4 0-.6-.2l-2.1-1.2c-.5-.3-.7-1-.4-1.5.3-.5 1-.7 1.5-.4l2.1 1.2c.5.3.7 1 .4 1.5-.1.4-.5.6-.9.6ZM27.9 10.1c.2.2.4.2.6.2.4 0 .8-.2 1-.5.3-.5.1-1.2-.4-1.5L27 7.1c-.5-.3-1.2-.1-1.5.4-.3.5-.1 1.2.4 1.5l2 1.1Z" fill="#593CFB"></path><path fill-rule="evenodd" clip-rule="evenodd" d="M34.944 40.2H39.7c.7 0 1.3-.6 1.4-1.3v-5.1c0-2.5-1.9-4.6-4.4-4.9l-11.8-1.2-10.2-8.1c-.6-.4-1.4-.3-1.8.2-.4.6-.3 1.4.2 1.8L23.6 30c.1.2.4.3.6.3l12.1 1.3c1.3.1 2.2 1.1 2.2 2.4v3.8h-4.3a.956.956 0 0 0-.187.019A5.587 5.587 0 0 0 29.4 35.4c-1.909 0-3.59.948-4.6 2.4H4.3c-.6 0-1.2.6-1.2 1.2s.5 1.2 1.2 1.2h19.556a5.687 5.687 0 0 0-.056.8c0 3.1 2.5 5.6 5.6 5.6 3.1 0 5.6-2.5 5.6-5.6 0-.272-.02-.539-.056-.8ZM26.3 41c0-1.7 1.4-3.1 3.1-3.1 1.7 0 3.1 1.4 3.1 3.1 0 1.7-1.4 3.1-3.1 3.1-1.7 0-3.1-1.4-3.1-3.1Z" fill="#593CFB"></path><path d="M15.5 30.1H4.2c-.7 0-1.2-.6-1.2-1.2s.6-1.2 1.2-1.2h11.3c.7 0 1.2.6 1.2 1.2s-.5 1.2-1.2 1.2Z" fill="#593CFB"></path></svg>