<svg width="32px" height="32px" viewBox="0 0 48 48" fill="none" xmlns="http://www.w3.org/2000/svg" aria-label="Classic cars" class="seo-pages-0" role="img" version="1.1"><path d="M16.76 6.4s5.25.54 7.1 7l.01-.03v28.29l-.01.01S5.11 28.35 5.26 16.29C5.4 4.23 16.76 6.4 16.76 6.4Z" fill="#E0CAFF"></path><path d="M23.85 42.92c-.25 0-.5-.07-.72-.23C22.34 42.13 3.85 28.84 4 16.27c.05-4.03 1.28-7.06 3.65-9 3.67-2.99 8.71-2.21 9.29-2.11.56.07 4.5.73 6.92 5 2.42-4.27 6.36-4.93 6.92-5 .58-.1 5.62-.89 9.29 2.11 2.37 1.94 3.6 4.96 3.65 9 .1 7.9-7.13 16.1-13.21 21.58-.51.46-1.3.42-1.77-.09-.46-.51-.42-1.3.09-1.77 4.66-4.21 12.48-12.36 12.39-19.7-.04-3.26-.96-5.64-2.73-7.09-2.92-2.38-7.24-1.59-7.29-1.58-.04.01-.07.01-.11.02-.16.02-4.19.55-5.87 5.6l-.19.56c-.18.52-.63.86-1.21.84a1.24 1.24 0 0 1-1.17-.91c-1.59-5.57-5.98-6.09-6.02-6.1-.04 0-.07-.01-.11-.02-.04-.01-4.4-.79-7.3 1.59-1.76 1.47-2.68 3.85-2.72 7.1-.14 11.28 17.89 24.22 18.08 24.35.56.4.7 1.18.29 1.74-.24.35-.63.53-1.02.53Z" fill="#593CFB"></path></svg>